<svg xmlns="http://www.w3.org/2000/svg" viewBox="0 0 20 20">
  <defs>
    <style>
      .cls-1 {
        fill: #a3a3a3;
      }
    </style>
  </defs>
  <g id="icons8-calendar" transform="translate(-1 -1)">
    <path id="Path_144" data-name="Path 144" class="cls-1" d="M4.077,1V2.538H3.308A2.316,2.316,0,0,0,1,4.846V18.692A2.316,2.316,0,0,0,3.308,21H18.692A2.316,2.316,0,0,0,21,18.692V4.846a2.316,2.316,0,0,0-2.308-2.308h-.769V1H16.385V2.538H5.615V1ZM3.308,4.077h.769V5.615H5.615V4.077H16.385V5.615h1.538V4.077h.769a.759.759,0,0,1,.769.769V7.154H2.538V4.846A.759.759,0,0,1,3.308,4.077ZM2.538,8.692H19.462v10a.759.759,0,0,1-.769.769H3.308a.759.759,0,0,1-.769-.769Zm4.615,1.538v1.538H8.692V10.231Zm3.077,0v1.538h1.538V10.231Zm3.077,0v1.538h1.538V10.231Zm3.077,0v1.538h1.538V10.231ZM4.077,13.308v1.538H5.615V13.308Zm3.077,0v1.538H8.692V13.308Zm3.077,0v1.538h1.538V13.308Zm3.077,0v1.538h1.538V13.308Zm3.077,0v1.538h1.538V13.308ZM4.077,16.385v1.538H5.615V16.385Zm3.077,0v1.538H8.692V16.385Zm3.077,0v1.538h1.538V16.385Z" transform="translate(0 0)"/>
  </g>
</svg>
