<svg xmlns="http://www.w3.org/2000/svg" viewBox="0 0 11 13">
  <defs>
    <style>
      .cls-1 {
        fill: #eb6e1f;
      }
    </style>
  </defs>
  <path id="Path_38" data-name="Path 38" class="cls-1" d="M6.5,1A1.5,1.5,0,0,0,5,2.5V3H2V4H3v8.5A1.505,1.505,0,0,0,4.5,14h6A1.505,1.505,0,0,0,12,12.5V4h1V3H10V2.5A1.5,1.5,0,0,0,8.5,1Zm0,1H8.5a.487.487,0,0,1,.5.5V3H6V2.5A.487.487,0,0,1,6.5,2ZM4,4h7v8.5a.494.494,0,0,1-.5.5h-6a.494.494,0,0,1-.5-.5ZM5,5v7H6V5ZM7,5v7H8V5ZM9,5v7h1V5Z" transform="translate(-2 -1)"/>
</svg>
