<svg xmlns="http://www.w3.org/2000/svg" viewBox="0 0 14 13">
  <defs>
    <style>
      .cls-1 {
        fill: #eb6e1f;
      }
    </style>
  </defs>
  <g id="icons8-copy" transform="translate(-1 -1)">
    <path id="Path_145" data-name="Path 145" class="cls-1" d="M2.5,1A1.505,1.505,0,0,0,1,2.5v8A1.505,1.505,0,0,0,2.5,12H4v.5A1.505,1.505,0,0,0,5.5,14h8A1.505,1.505,0,0,0,15,12.5v-8A1.505,1.505,0,0,0,13.5,3H12V2.5A1.505,1.505,0,0,0,10.5,1Zm0,1h8a.494.494,0,0,1,.5.5v8a.494.494,0,0,1-.5.5h-8a.494.494,0,0,1-.5-.5v-8A.494.494,0,0,1,2.5,2ZM12,4h1.5a.494.494,0,0,1,.5.5v8a.494.494,0,0,1-.5.5h-8a.494.494,0,0,1-.5-.5V12h5.5A1.505,1.505,0,0,0,12,10.5Z"/>
  </g>
</svg>
