<svg xmlns="http://www.w3.org/2000/svg" viewBox="0 0 15.105 9">
  <defs>
    <style>
      .cls-1 {
        fill: #eb6e1f;
      }
    </style>
  </defs>
  <path id="Path_37" data-name="Path 37" class="cls-1" d="M7.5,4A8.328,8.328,0,0,0,.047,8.289l-.1.211.1.211A8.328,8.328,0,0,0,7.5,13a8.328,8.328,0,0,0,7.453-4.289l.1-.211-.1-.211A8.328,8.328,0,0,0,7.5,4Zm0,1A3.5,3.5,0,1,1,4,8.5,3.494,3.494,0,0,1,7.5,5Zm-3.559.777a4.408,4.408,0,0,0,0,5.445A6.3,6.3,0,0,1,1.117,8.5,6.3,6.3,0,0,1,3.941,5.777Zm7.117,0A6.3,6.3,0,0,1,13.883,8.5a6.3,6.3,0,0,1-2.824,2.723,4.408,4.408,0,0,0,0-5.445ZM7.5,7A1.5,1.5,0,1,0,9,8.5,1.5,1.5,0,0,0,7.5,7Z" transform="translate(0.055 -4)"/>
</svg>
