<svg xmlns="http://www.w3.org/2000/svg" viewBox="0 0 100 100">
  <defs>
    <style>
      .cls-1 {
        fill: #C41230;
      }
    </style>
  </defs>
  <g id="Warning" transform="translate(-1 -1)">
    <path id="Path_108" data-name="Path 108" class="cls-1" d="M51,1a50,50,0,1,0,50,50A50.077,50.077,0,0,0,51,1Zm0,7.692A42.308,42.308,0,1,1,8.692,51,42.255,42.255,0,0,1,51,8.692Z"/>
    <path id="icons8-attention" class="cls-1" d="M49.554,28.83a.792.792,0,0,0-.876.857V58.707a.8.8,0,0,0,.876.861h5.03a.8.8,0,0,0,.876-.861V29.687a.793.793,0,0,0-.876-.857Zm0,38.694a.792.792,0,0,0-.876.857v5.593a.793.793,0,0,0,.876.857H54.8a.792.792,0,0,0,.876-.857V68.381a.793.793,0,0,0-.876-.857Z" transform="translate(-0.678 -0.83)"/>
  </g>
</svg>
